<svg xmlns="http://www.w3.org/2000/svg" xmlns:xlink="http://www.w3.org/1999/xlink" width="277" height="748" viewBox="0 0 277 748">
  <defs>
    <clipPath id="clip-path">
      <rect width="277" height="748" fill="none"/>
    </clipPath>
  </defs>
  <g id="Repeat_Grid_1" data-name="Repeat Grid 1" clip-path="url(#clip-path)">
    <g transform="translate(-1468 -5971)">
      <circle id="Ellipse_6" data-name="Ellipse 6" cx="10" cy="10" r="10" transform="translate(1468 5971)" fill="#0097e6"/>
    </g>
    <g transform="translate(-1428 -5971)">
      <circle id="Ellipse_6-2" data-name="Ellipse 6" cx="10" cy="10" r="10" transform="translate(1468 5971)" fill="#0097e6"/>
    </g>
    <g transform="translate(-1388 -5971)">
      <circle id="Ellipse_6-3" data-name="Ellipse 6" cx="10" cy="10" r="10" transform="translate(1468 5971)" fill="#0097e6"/>
    </g>
    <g transform="translate(-1348 -5971)">
      <circle id="Ellipse_6-4" data-name="Ellipse 6" cx="10" cy="10" r="10" transform="translate(1468 5971)" fill="#0097e6"/>
    </g>
    <g transform="translate(-1308 -5971)">
      <circle id="Ellipse_6-5" data-name="Ellipse 6" cx="10" cy="10" r="10" transform="translate(1468 5971)" fill="#0097e6"/>
    </g>
    <g transform="translate(-1268 -5971)">
      <circle id="Ellipse_6-6" data-name="Ellipse 6" cx="10" cy="10" r="10" transform="translate(1468 5971)" fill="#0097e6"/>
    </g>
    <g transform="translate(-1228 -5971)">
      <circle id="Ellipse_6-7" data-name="Ellipse 6" cx="10" cy="10" r="10" transform="translate(1468 5971)" fill="#0097e6"/>
    </g>
    <g transform="translate(-1468 -5931)">
      <circle id="Ellipse_6-8" data-name="Ellipse 6" cx="10" cy="10" r="10" transform="translate(1468 5971)" fill="#0097e6"/>
    </g>
    <g transform="translate(-1428 -5931)">
      <circle id="Ellipse_6-9" data-name="Ellipse 6" cx="10" cy="10" r="10" transform="translate(1468 5971)" fill="#0097e6"/>
    </g>
    <g transform="translate(-1388 -5931)">
      <circle id="Ellipse_6-10" data-name="Ellipse 6" cx="10" cy="10" r="10" transform="translate(1468 5971)" fill="#0097e6"/>
    </g>
    <g transform="translate(-1348 -5931)">
      <circle id="Ellipse_6-11" data-name="Ellipse 6" cx="10" cy="10" r="10" transform="translate(1468 5971)" fill="#0097e6"/>
    </g>
    <g transform="translate(-1308 -5931)">
      <circle id="Ellipse_6-12" data-name="Ellipse 6" cx="10" cy="10" r="10" transform="translate(1468 5971)" fill="#0097e6"/>
    </g>
    <g transform="translate(-1268 -5931)">
      <circle id="Ellipse_6-13" data-name="Ellipse 6" cx="10" cy="10" r="10" transform="translate(1468 5971)" fill="#0097e6"/>
    </g>
    <g transform="translate(-1228 -5931)">
      <circle id="Ellipse_6-14" data-name="Ellipse 6" cx="10" cy="10" r="10" transform="translate(1468 5971)" fill="#0097e6"/>
    </g>
    <g transform="translate(-1468 -5891)">
      <circle id="Ellipse_6-15" data-name="Ellipse 6" cx="10" cy="10" r="10" transform="translate(1468 5971)" fill="#0097e6"/>
    </g>
    <g transform="translate(-1428 -5891)">
      <circle id="Ellipse_6-16" data-name="Ellipse 6" cx="10" cy="10" r="10" transform="translate(1468 5971)" fill="#0097e6"/>
    </g>
    <g transform="translate(-1388 -5891)">
      <circle id="Ellipse_6-17" data-name="Ellipse 6" cx="10" cy="10" r="10" transform="translate(1468 5971)" fill="#0097e6"/>
    </g>
    <g transform="translate(-1348 -5891)">
      <circle id="Ellipse_6-18" data-name="Ellipse 6" cx="10" cy="10" r="10" transform="translate(1468 5971)" fill="#0097e6"/>
    </g>
    <g transform="translate(-1308 -5891)">
      <circle id="Ellipse_6-19" data-name="Ellipse 6" cx="10" cy="10" r="10" transform="translate(1468 5971)" fill="#0097e6"/>
    </g>
    <g transform="translate(-1268 -5891)">
      <circle id="Ellipse_6-20" data-name="Ellipse 6" cx="10" cy="10" r="10" transform="translate(1468 5971)" fill="#0097e6"/>
    </g>
    <g transform="translate(-1228 -5891)">
      <circle id="Ellipse_6-21" data-name="Ellipse 6" cx="10" cy="10" r="10" transform="translate(1468 5971)" fill="#0097e6"/>
    </g>
    <g transform="translate(-1468 -5851)">
      <circle id="Ellipse_6-22" data-name="Ellipse 6" cx="10" cy="10" r="10" transform="translate(1468 5971)" fill="#0097e6"/>
    </g>
    <g transform="translate(-1428 -5851)">
      <circle id="Ellipse_6-23" data-name="Ellipse 6" cx="10" cy="10" r="10" transform="translate(1468 5971)" fill="#0097e6"/>
    </g>
    <g transform="translate(-1388 -5851)">
      <circle id="Ellipse_6-24" data-name="Ellipse 6" cx="10" cy="10" r="10" transform="translate(1468 5971)" fill="#0097e6"/>
    </g>
    <g transform="translate(-1348 -5851)">
      <circle id="Ellipse_6-25" data-name="Ellipse 6" cx="10" cy="10" r="10" transform="translate(1468 5971)" fill="#0097e6"/>
    </g>
    <g transform="translate(-1308 -5851)">
      <circle id="Ellipse_6-26" data-name="Ellipse 6" cx="10" cy="10" r="10" transform="translate(1468 5971)" fill="#0097e6"/>
    </g>
    <g transform="translate(-1268 -5851)">
      <circle id="Ellipse_6-27" data-name="Ellipse 6" cx="10" cy="10" r="10" transform="translate(1468 5971)" fill="#0097e6"/>
    </g>
    <g transform="translate(-1228 -5851)">
      <circle id="Ellipse_6-28" data-name="Ellipse 6" cx="10" cy="10" r="10" transform="translate(1468 5971)" fill="#0097e6"/>
    </g>
    <g transform="translate(-1468 -5811)">
      <circle id="Ellipse_6-29" data-name="Ellipse 6" cx="10" cy="10" r="10" transform="translate(1468 5971)" fill="#0097e6"/>
    </g>
    <g transform="translate(-1428 -5811)">
      <circle id="Ellipse_6-30" data-name="Ellipse 6" cx="10" cy="10" r="10" transform="translate(1468 5971)" fill="#0097e6"/>
    </g>
    <g transform="translate(-1388 -5811)">
      <circle id="Ellipse_6-31" data-name="Ellipse 6" cx="10" cy="10" r="10" transform="translate(1468 5971)" fill="#0097e6"/>
    </g>
    <g transform="translate(-1348 -5811)">
      <circle id="Ellipse_6-32" data-name="Ellipse 6" cx="10" cy="10" r="10" transform="translate(1468 5971)" fill="#0097e6"/>
    </g>
    <g transform="translate(-1308 -5811)">
      <circle id="Ellipse_6-33" data-name="Ellipse 6" cx="10" cy="10" r="10" transform="translate(1468 5971)" fill="#0097e6"/>
    </g>
    <g transform="translate(-1268 -5811)">
      <circle id="Ellipse_6-34" data-name="Ellipse 6" cx="10" cy="10" r="10" transform="translate(1468 5971)" fill="#0097e6"/>
    </g>
    <g transform="translate(-1228 -5811)">
      <circle id="Ellipse_6-35" data-name="Ellipse 6" cx="10" cy="10" r="10" transform="translate(1468 5971)" fill="#0097e6"/>
    </g>
    <g transform="translate(-1468 -5771)">
      <circle id="Ellipse_6-36" data-name="Ellipse 6" cx="10" cy="10" r="10" transform="translate(1468 5971)" fill="#0097e6"/>
    </g>
    <g transform="translate(-1428 -5771)">
      <circle id="Ellipse_6-37" data-name="Ellipse 6" cx="10" cy="10" r="10" transform="translate(1468 5971)" fill="#0097e6"/>
    </g>
    <g transform="translate(-1388 -5771)">
      <circle id="Ellipse_6-38" data-name="Ellipse 6" cx="10" cy="10" r="10" transform="translate(1468 5971)" fill="#0097e6"/>
    </g>
    <g transform="translate(-1348 -5771)">
      <circle id="Ellipse_6-39" data-name="Ellipse 6" cx="10" cy="10" r="10" transform="translate(1468 5971)" fill="#0097e6"/>
    </g>
    <g transform="translate(-1308 -5771)">
      <circle id="Ellipse_6-40" data-name="Ellipse 6" cx="10" cy="10" r="10" transform="translate(1468 5971)" fill="#0097e6"/>
    </g>
    <g transform="translate(-1268 -5771)">
      <circle id="Ellipse_6-41" data-name="Ellipse 6" cx="10" cy="10" r="10" transform="translate(1468 5971)" fill="#0097e6"/>
    </g>
    <g transform="translate(-1228 -5771)">
      <circle id="Ellipse_6-42" data-name="Ellipse 6" cx="10" cy="10" r="10" transform="translate(1468 5971)" fill="#0097e6"/>
    </g>
    <g transform="translate(-1468 -5731)">
      <circle id="Ellipse_6-43" data-name="Ellipse 6" cx="10" cy="10" r="10" transform="translate(1468 5971)" fill="#0097e6"/>
    </g>
    <g transform="translate(-1428 -5731)">
      <circle id="Ellipse_6-44" data-name="Ellipse 6" cx="10" cy="10" r="10" transform="translate(1468 5971)" fill="#0097e6"/>
    </g>
    <g transform="translate(-1388 -5731)">
      <circle id="Ellipse_6-45" data-name="Ellipse 6" cx="10" cy="10" r="10" transform="translate(1468 5971)" fill="#0097e6"/>
    </g>
    <g transform="translate(-1348 -5731)">
      <circle id="Ellipse_6-46" data-name="Ellipse 6" cx="10" cy="10" r="10" transform="translate(1468 5971)" fill="#0097e6"/>
    </g>
    <g transform="translate(-1308 -5731)">
      <circle id="Ellipse_6-47" data-name="Ellipse 6" cx="10" cy="10" r="10" transform="translate(1468 5971)" fill="#0097e6"/>
    </g>
    <g transform="translate(-1268 -5731)">
      <circle id="Ellipse_6-48" data-name="Ellipse 6" cx="10" cy="10" r="10" transform="translate(1468 5971)" fill="#0097e6"/>
    </g>
    <g transform="translate(-1228 -5731)">
      <circle id="Ellipse_6-49" data-name="Ellipse 6" cx="10" cy="10" r="10" transform="translate(1468 5971)" fill="#0097e6"/>
    </g>
    <g transform="translate(-1468 -5691)">
      <circle id="Ellipse_6-50" data-name="Ellipse 6" cx="10" cy="10" r="10" transform="translate(1468 5971)" fill="#0097e6"/>
    </g>
    <g transform="translate(-1428 -5691)">
      <circle id="Ellipse_6-51" data-name="Ellipse 6" cx="10" cy="10" r="10" transform="translate(1468 5971)" fill="#0097e6"/>
    </g>
    <g transform="translate(-1388 -5691)">
      <circle id="Ellipse_6-52" data-name="Ellipse 6" cx="10" cy="10" r="10" transform="translate(1468 5971)" fill="#0097e6"/>
    </g>
    <g transform="translate(-1348 -5691)">
      <circle id="Ellipse_6-53" data-name="Ellipse 6" cx="10" cy="10" r="10" transform="translate(1468 5971)" fill="#0097e6"/>
    </g>
    <g transform="translate(-1308 -5691)">
      <circle id="Ellipse_6-54" data-name="Ellipse 6" cx="10" cy="10" r="10" transform="translate(1468 5971)" fill="#0097e6"/>
    </g>
    <g transform="translate(-1268 -5691)">
      <circle id="Ellipse_6-55" data-name="Ellipse 6" cx="10" cy="10" r="10" transform="translate(1468 5971)" fill="#0097e6"/>
    </g>
    <g transform="translate(-1228 -5691)">
      <circle id="Ellipse_6-56" data-name="Ellipse 6" cx="10" cy="10" r="10" transform="translate(1468 5971)" fill="#0097e6"/>
    </g>
    <g transform="translate(-1468 -5651)">
      <circle id="Ellipse_6-57" data-name="Ellipse 6" cx="10" cy="10" r="10" transform="translate(1468 5971)" fill="#0097e6"/>
    </g>
    <g transform="translate(-1428 -5651)">
      <circle id="Ellipse_6-58" data-name="Ellipse 6" cx="10" cy="10" r="10" transform="translate(1468 5971)" fill="#0097e6"/>
    </g>
    <g transform="translate(-1388 -5651)">
      <circle id="Ellipse_6-59" data-name="Ellipse 6" cx="10" cy="10" r="10" transform="translate(1468 5971)" fill="#0097e6"/>
    </g>
    <g transform="translate(-1348 -5651)">
      <circle id="Ellipse_6-60" data-name="Ellipse 6" cx="10" cy="10" r="10" transform="translate(1468 5971)" fill="#0097e6"/>
    </g>
    <g transform="translate(-1308 -5651)">
      <circle id="Ellipse_6-61" data-name="Ellipse 6" cx="10" cy="10" r="10" transform="translate(1468 5971)" fill="#0097e6"/>
    </g>
    <g transform="translate(-1268 -5651)">
      <circle id="Ellipse_6-62" data-name="Ellipse 6" cx="10" cy="10" r="10" transform="translate(1468 5971)" fill="#0097e6"/>
    </g>
    <g transform="translate(-1228 -5651)">
      <circle id="Ellipse_6-63" data-name="Ellipse 6" cx="10" cy="10" r="10" transform="translate(1468 5971)" fill="#0097e6"/>
    </g>
    <g transform="translate(-1468 -5611)">
      <circle id="Ellipse_6-64" data-name="Ellipse 6" cx="10" cy="10" r="10" transform="translate(1468 5971)" fill="#0097e6"/>
    </g>
    <g transform="translate(-1428 -5611)">
      <circle id="Ellipse_6-65" data-name="Ellipse 6" cx="10" cy="10" r="10" transform="translate(1468 5971)" fill="#0097e6"/>
    </g>
    <g transform="translate(-1388 -5611)">
      <circle id="Ellipse_6-66" data-name="Ellipse 6" cx="10" cy="10" r="10" transform="translate(1468 5971)" fill="#0097e6"/>
    </g>
    <g transform="translate(-1348 -5611)">
      <circle id="Ellipse_6-67" data-name="Ellipse 6" cx="10" cy="10" r="10" transform="translate(1468 5971)" fill="#0097e6"/>
    </g>
    <g transform="translate(-1308 -5611)">
      <circle id="Ellipse_6-68" data-name="Ellipse 6" cx="10" cy="10" r="10" transform="translate(1468 5971)" fill="#0097e6"/>
    </g>
    <g transform="translate(-1268 -5611)">
      <circle id="Ellipse_6-69" data-name="Ellipse 6" cx="10" cy="10" r="10" transform="translate(1468 5971)" fill="#0097e6"/>
    </g>
    <g transform="translate(-1228 -5611)">
      <circle id="Ellipse_6-70" data-name="Ellipse 6" cx="10" cy="10" r="10" transform="translate(1468 5971)" fill="#0097e6"/>
    </g>
    <g transform="translate(-1468 -5571)">
      <circle id="Ellipse_6-71" data-name="Ellipse 6" cx="10" cy="10" r="10" transform="translate(1468 5971)" fill="#0097e6"/>
    </g>
    <g transform="translate(-1428 -5571)">
      <circle id="Ellipse_6-72" data-name="Ellipse 6" cx="10" cy="10" r="10" transform="translate(1468 5971)" fill="#0097e6"/>
    </g>
    <g transform="translate(-1388 -5571)">
      <circle id="Ellipse_6-73" data-name="Ellipse 6" cx="10" cy="10" r="10" transform="translate(1468 5971)" fill="#0097e6"/>
    </g>
    <g transform="translate(-1348 -5571)">
      <circle id="Ellipse_6-74" data-name="Ellipse 6" cx="10" cy="10" r="10" transform="translate(1468 5971)" fill="#0097e6"/>
    </g>
    <g transform="translate(-1308 -5571)">
      <circle id="Ellipse_6-75" data-name="Ellipse 6" cx="10" cy="10" r="10" transform="translate(1468 5971)" fill="#0097e6"/>
    </g>
    <g transform="translate(-1268 -5571)">
      <circle id="Ellipse_6-76" data-name="Ellipse 6" cx="10" cy="10" r="10" transform="translate(1468 5971)" fill="#0097e6"/>
    </g>
    <g transform="translate(-1228 -5571)">
      <circle id="Ellipse_6-77" data-name="Ellipse 6" cx="10" cy="10" r="10" transform="translate(1468 5971)" fill="#0097e6"/>
    </g>
    <g transform="translate(-1468 -5531)">
      <circle id="Ellipse_6-78" data-name="Ellipse 6" cx="10" cy="10" r="10" transform="translate(1468 5971)" fill="#0097e6"/>
    </g>
    <g transform="translate(-1428 -5531)">
      <circle id="Ellipse_6-79" data-name="Ellipse 6" cx="10" cy="10" r="10" transform="translate(1468 5971)" fill="#0097e6"/>
    </g>
    <g transform="translate(-1388 -5531)">
      <circle id="Ellipse_6-80" data-name="Ellipse 6" cx="10" cy="10" r="10" transform="translate(1468 5971)" fill="#0097e6"/>
    </g>
    <g transform="translate(-1348 -5531)">
      <circle id="Ellipse_6-81" data-name="Ellipse 6" cx="10" cy="10" r="10" transform="translate(1468 5971)" fill="#0097e6"/>
    </g>
    <g transform="translate(-1308 -5531)">
      <circle id="Ellipse_6-82" data-name="Ellipse 6" cx="10" cy="10" r="10" transform="translate(1468 5971)" fill="#0097e6"/>
    </g>
    <g transform="translate(-1268 -5531)">
      <circle id="Ellipse_6-83" data-name="Ellipse 6" cx="10" cy="10" r="10" transform="translate(1468 5971)" fill="#0097e6"/>
    </g>
    <g transform="translate(-1228 -5531)">
      <circle id="Ellipse_6-84" data-name="Ellipse 6" cx="10" cy="10" r="10" transform="translate(1468 5971)" fill="#0097e6"/>
    </g>
    <g transform="translate(-1468 -5491)">
      <circle id="Ellipse_6-85" data-name="Ellipse 6" cx="10" cy="10" r="10" transform="translate(1468 5971)" fill="#0097e6"/>
    </g>
    <g transform="translate(-1428 -5491)">
      <circle id="Ellipse_6-86" data-name="Ellipse 6" cx="10" cy="10" r="10" transform="translate(1468 5971)" fill="#0097e6"/>
    </g>
    <g transform="translate(-1388 -5491)">
      <circle id="Ellipse_6-87" data-name="Ellipse 6" cx="10" cy="10" r="10" transform="translate(1468 5971)" fill="#0097e6"/>
    </g>
    <g transform="translate(-1348 -5491)">
      <circle id="Ellipse_6-88" data-name="Ellipse 6" cx="10" cy="10" r="10" transform="translate(1468 5971)" fill="#0097e6"/>
    </g>
    <g transform="translate(-1308 -5491)">
      <circle id="Ellipse_6-89" data-name="Ellipse 6" cx="10" cy="10" r="10" transform="translate(1468 5971)" fill="#0097e6"/>
    </g>
    <g transform="translate(-1268 -5491)">
      <circle id="Ellipse_6-90" data-name="Ellipse 6" cx="10" cy="10" r="10" transform="translate(1468 5971)" fill="#0097e6"/>
    </g>
    <g transform="translate(-1228 -5491)">
      <circle id="Ellipse_6-91" data-name="Ellipse 6" cx="10" cy="10" r="10" transform="translate(1468 5971)" fill="#0097e6"/>
    </g>
    <g transform="translate(-1468 -5451)">
      <circle id="Ellipse_6-92" data-name="Ellipse 6" cx="10" cy="10" r="10" transform="translate(1468 5971)" fill="#0097e6"/>
    </g>
    <g transform="translate(-1428 -5451)">
      <circle id="Ellipse_6-93" data-name="Ellipse 6" cx="10" cy="10" r="10" transform="translate(1468 5971)" fill="#0097e6"/>
    </g>
    <g transform="translate(-1388 -5451)">
      <circle id="Ellipse_6-94" data-name="Ellipse 6" cx="10" cy="10" r="10" transform="translate(1468 5971)" fill="#0097e6"/>
    </g>
    <g transform="translate(-1348 -5451)">
      <circle id="Ellipse_6-95" data-name="Ellipse 6" cx="10" cy="10" r="10" transform="translate(1468 5971)" fill="#0097e6"/>
    </g>
    <g transform="translate(-1308 -5451)">
      <circle id="Ellipse_6-96" data-name="Ellipse 6" cx="10" cy="10" r="10" transform="translate(1468 5971)" fill="#0097e6"/>
    </g>
    <g transform="translate(-1268 -5451)">
      <circle id="Ellipse_6-97" data-name="Ellipse 6" cx="10" cy="10" r="10" transform="translate(1468 5971)" fill="#0097e6"/>
    </g>
    <g transform="translate(-1228 -5451)">
      <circle id="Ellipse_6-98" data-name="Ellipse 6" cx="10" cy="10" r="10" transform="translate(1468 5971)" fill="#0097e6"/>
    </g>
    <g transform="translate(-1468 -5411)">
      <circle id="Ellipse_6-99" data-name="Ellipse 6" cx="10" cy="10" r="10" transform="translate(1468 5971)" fill="#0097e6"/>
    </g>
    <g transform="translate(-1428 -5411)">
      <circle id="Ellipse_6-100" data-name="Ellipse 6" cx="10" cy="10" r="10" transform="translate(1468 5971)" fill="#0097e6"/>
    </g>
    <g transform="translate(-1388 -5411)">
      <circle id="Ellipse_6-101" data-name="Ellipse 6" cx="10" cy="10" r="10" transform="translate(1468 5971)" fill="#0097e6"/>
    </g>
    <g transform="translate(-1348 -5411)">
      <circle id="Ellipse_6-102" data-name="Ellipse 6" cx="10" cy="10" r="10" transform="translate(1468 5971)" fill="#0097e6"/>
    </g>
    <g transform="translate(-1308 -5411)">
      <circle id="Ellipse_6-103" data-name="Ellipse 6" cx="10" cy="10" r="10" transform="translate(1468 5971)" fill="#0097e6"/>
    </g>
    <g transform="translate(-1268 -5411)">
      <circle id="Ellipse_6-104" data-name="Ellipse 6" cx="10" cy="10" r="10" transform="translate(1468 5971)" fill="#0097e6"/>
    </g>
    <g transform="translate(-1228 -5411)">
      <circle id="Ellipse_6-105" data-name="Ellipse 6" cx="10" cy="10" r="10" transform="translate(1468 5971)" fill="#0097e6"/>
    </g>
    <g transform="translate(-1468 -5371)">
      <circle id="Ellipse_6-106" data-name="Ellipse 6" cx="10" cy="10" r="10" transform="translate(1468 5971)" fill="#0097e6"/>
    </g>
    <g transform="translate(-1428 -5371)">
      <circle id="Ellipse_6-107" data-name="Ellipse 6" cx="10" cy="10" r="10" transform="translate(1468 5971)" fill="#0097e6"/>
    </g>
    <g transform="translate(-1388 -5371)">
      <circle id="Ellipse_6-108" data-name="Ellipse 6" cx="10" cy="10" r="10" transform="translate(1468 5971)" fill="#0097e6"/>
    </g>
    <g transform="translate(-1348 -5371)">
      <circle id="Ellipse_6-109" data-name="Ellipse 6" cx="10" cy="10" r="10" transform="translate(1468 5971)" fill="#0097e6"/>
    </g>
    <g transform="translate(-1308 -5371)">
      <circle id="Ellipse_6-110" data-name="Ellipse 6" cx="10" cy="10" r="10" transform="translate(1468 5971)" fill="#0097e6"/>
    </g>
    <g transform="translate(-1268 -5371)">
      <circle id="Ellipse_6-111" data-name="Ellipse 6" cx="10" cy="10" r="10" transform="translate(1468 5971)" fill="#0097e6"/>
    </g>
    <g transform="translate(-1228 -5371)">
      <circle id="Ellipse_6-112" data-name="Ellipse 6" cx="10" cy="10" r="10" transform="translate(1468 5971)" fill="#0097e6"/>
    </g>
    <g transform="translate(-1468 -5331)">
      <circle id="Ellipse_6-113" data-name="Ellipse 6" cx="10" cy="10" r="10" transform="translate(1468 5971)" fill="#0097e6"/>
    </g>
    <g transform="translate(-1428 -5331)">
      <circle id="Ellipse_6-114" data-name="Ellipse 6" cx="10" cy="10" r="10" transform="translate(1468 5971)" fill="#0097e6"/>
    </g>
    <g transform="translate(-1388 -5331)">
      <circle id="Ellipse_6-115" data-name="Ellipse 6" cx="10" cy="10" r="10" transform="translate(1468 5971)" fill="#0097e6"/>
    </g>
    <g transform="translate(-1348 -5331)">
      <circle id="Ellipse_6-116" data-name="Ellipse 6" cx="10" cy="10" r="10" transform="translate(1468 5971)" fill="#0097e6"/>
    </g>
    <g transform="translate(-1308 -5331)">
      <circle id="Ellipse_6-117" data-name="Ellipse 6" cx="10" cy="10" r="10" transform="translate(1468 5971)" fill="#0097e6"/>
    </g>
    <g transform="translate(-1268 -5331)">
      <circle id="Ellipse_6-118" data-name="Ellipse 6" cx="10" cy="10" r="10" transform="translate(1468 5971)" fill="#0097e6"/>
    </g>
    <g transform="translate(-1228 -5331)">
      <circle id="Ellipse_6-119" data-name="Ellipse 6" cx="10" cy="10" r="10" transform="translate(1468 5971)" fill="#0097e6"/>
    </g>
    <g transform="translate(-1468 -5291)">
      <circle id="Ellipse_6-120" data-name="Ellipse 6" cx="10" cy="10" r="10" transform="translate(1468 5971)" fill="#0097e6"/>
    </g>
    <g transform="translate(-1428 -5291)">
      <circle id="Ellipse_6-121" data-name="Ellipse 6" cx="10" cy="10" r="10" transform="translate(1468 5971)" fill="#0097e6"/>
    </g>
    <g transform="translate(-1388 -5291)">
      <circle id="Ellipse_6-122" data-name="Ellipse 6" cx="10" cy="10" r="10" transform="translate(1468 5971)" fill="#0097e6"/>
    </g>
    <g transform="translate(-1348 -5291)">
      <circle id="Ellipse_6-123" data-name="Ellipse 6" cx="10" cy="10" r="10" transform="translate(1468 5971)" fill="#0097e6"/>
    </g>
    <g transform="translate(-1308 -5291)">
      <circle id="Ellipse_6-124" data-name="Ellipse 6" cx="10" cy="10" r="10" transform="translate(1468 5971)" fill="#0097e6"/>
    </g>
    <g transform="translate(-1268 -5291)">
      <circle id="Ellipse_6-125" data-name="Ellipse 6" cx="10" cy="10" r="10" transform="translate(1468 5971)" fill="#0097e6"/>
    </g>
    <g transform="translate(-1228 -5291)">
      <circle id="Ellipse_6-126" data-name="Ellipse 6" cx="10" cy="10" r="10" transform="translate(1468 5971)" fill="#0097e6"/>
    </g>
    <g transform="translate(-1468 -5251)">
      <circle id="Ellipse_6-127" data-name="Ellipse 6" cx="10" cy="10" r="10" transform="translate(1468 5971)" fill="#0097e6"/>
    </g>
    <g transform="translate(-1428 -5251)">
      <circle id="Ellipse_6-128" data-name="Ellipse 6" cx="10" cy="10" r="10" transform="translate(1468 5971)" fill="#0097e6"/>
    </g>
    <g transform="translate(-1388 -5251)">
      <circle id="Ellipse_6-129" data-name="Ellipse 6" cx="10" cy="10" r="10" transform="translate(1468 5971)" fill="#0097e6"/>
    </g>
    <g transform="translate(-1348 -5251)">
      <circle id="Ellipse_6-130" data-name="Ellipse 6" cx="10" cy="10" r="10" transform="translate(1468 5971)" fill="#0097e6"/>
    </g>
    <g transform="translate(-1308 -5251)">
      <circle id="Ellipse_6-131" data-name="Ellipse 6" cx="10" cy="10" r="10" transform="translate(1468 5971)" fill="#0097e6"/>
    </g>
    <g transform="translate(-1268 -5251)">
      <circle id="Ellipse_6-132" data-name="Ellipse 6" cx="10" cy="10" r="10" transform="translate(1468 5971)" fill="#0097e6"/>
    </g>
    <g transform="translate(-1228 -5251)">
      <circle id="Ellipse_6-133" data-name="Ellipse 6" cx="10" cy="10" r="10" transform="translate(1468 5971)" fill="#0097e6"/>
    </g>
  </g>
</svg>
