<svg xmlns="http://www.w3.org/2000/svg" width="365.363" height="282.547" viewBox="0 0 365.363 282.547">
  <g id="Group_32" data-name="Group 32" transform="translate(-124.251 -5913.331)">
    <g id="star" transform="translate(124.251 6054)">
      <path id="singlestar" d="M32,47,12,62l8-24L2,24H24L32,1l8,23H62L44,38l8,24Z" transform="translate(105.749 -1)" fill="none" stroke="#0097e6" stroke-miterlimit="10" stroke-width="2"/>
      <g id="Page-1" transform="translate(0 99.036)">
        <g id="icon-23-star">
          <path id="star-2" data-name="star" d="M22.132,34.956,9.19,44.842l5.752-16.478L2,18.478H16.38L22.132,2l5.752,16.478h14.38L29.322,28.364l5.752,16.478Z" transform="translate(-2 -2)" fill="#0097e6" fill-rule="evenodd"/>
        </g>
      </g>
    </g>
    <g id="_31.star" data-name="31.star" transform="translate(397.17 5913.331)">
      <path id="Path_38" data-name="Path 38" d="M78.4,46.388a1.893,1.893,0,0,0-1.912-1.875c-15.214-.062-27.516-12.169-27.527-27.088a1.912,1.912,0,0,0-3.823,0A26.864,26.864,0,0,1,37,36.608,27.942,27.942,0,0,1,17.4,44.513a1.875,1.875,0,1,0,0,3.749A27.942,27.942,0,0,1,37,56.167,26.864,26.864,0,0,1,45.139,75.35a1.912,1.912,0,0,0,3.823,0c.01-14.92,12.313-27.026,27.527-27.088A1.893,1.893,0,0,0,78.4,46.388ZM47.05,64.871A31.285,31.285,0,0,0,28.106,46.388,31.285,31.285,0,0,0,47.05,27.9,31.219,31.219,0,0,0,65.8,46.388,31.219,31.219,0,0,0,47.05,64.871Z" transform="translate(-0.828 -1.584)" fill="#0097e6"/>
      <path id="Path_39" data-name="Path 39" d="M9.732,27.484a13.935,13.935,0,0,1,14.05,13.778,1.912,1.912,0,0,0,3.823,0A13.916,13.916,0,0,1,41.636,27.484a1.875,1.875,0,1,0,0-3.749A13.9,13.9,0,0,1,27.6,9.975a1.912,1.912,0,0,0-3.823,0,13.917,13.917,0,0,1-14.05,13.76,1.875,1.875,0,1,0,0,3.749Zm15.962-9.673a17.7,17.7,0,0,0,7.952,7.8,17.836,17.836,0,0,0-7.952,7.817,17.932,17.932,0,0,0-7.971-7.817,17.8,17.8,0,0,0,7.971-7.8Z" transform="translate(-7.82 -8.1)" fill="#0097e6"/>
      <path id="Path_40" data-name="Path 40" d="M41.636,52.3A13.916,13.916,0,0,1,27.6,38.525a1.912,1.912,0,0,0-3.823,0A13.935,13.935,0,0,1,9.732,52.3a1.875,1.875,0,1,0,0,3.749,13.917,13.917,0,0,1,14.05,13.76,1.912,1.912,0,0,0,3.823,0,13.9,13.9,0,0,1,14.031-13.76,1.875,1.875,0,1,0,0-3.749ZM25.693,61.976a17.8,17.8,0,0,0-7.971-7.8,17.93,17.93,0,0,0,7.952-7.817,17.837,17.837,0,0,0,7.971,7.817,17.7,17.7,0,0,0-7.952,7.817Z" transform="translate(-7.82 16.87)" fill="#0097e6"/>
      <path id="Path_41" data-name="Path 41" d="M39.4,27.484A13.916,13.916,0,0,1,53.433,41.262a1.912,1.912,0,0,0,3.823,0,13.935,13.935,0,0,1,14.05-13.778,1.875,1.875,0,1,0,0-3.749,13.917,13.917,0,0,1-14.05-13.76,1.912,1.912,0,0,0-3.823,0A13.9,13.9,0,0,1,39.4,23.734a1.875,1.875,0,1,0,0,3.749Zm15.943-9.673a17.8,17.8,0,0,0,7.971,7.8,17.93,17.93,0,0,0-7.952,7.817,17.836,17.836,0,0,0-7.952-7.817,17.7,17.7,0,0,0,7.933-7.8Z" transform="translate(19.227 -8.1)" fill="#0097e6"/>
      <path id="Path_42" data-name="Path 42" d="M71.2,52.863A13.916,13.916,0,0,1,57.165,39.085a1.912,1.912,0,0,0-3.823,0,13.935,13.935,0,0,1-14.05,13.778,1.875,1.875,0,1,0,0,3.749,13.917,13.917,0,0,1,14.05,13.76,1.912,1.912,0,0,0,3.823,0A13.9,13.9,0,0,1,71.2,56.612a1.875,1.875,0,1,0,0-3.749ZM55.253,62.536a17.744,17.744,0,0,0-7.971-7.8,17.894,17.894,0,0,0,7.971-7.817,17.741,17.741,0,0,0,7.952,7.817,17.61,17.61,0,0,0-7.952,7.8Z" transform="translate(19.126 17.36)" fill="#0097e6"/>
    </g>
  </g>
</svg>
