<svg xmlns="http://www.w3.org/2000/svg" width="1909.35" height="327.176" viewBox="0 0 1909.35 327.176">
  <g id="wavesOpacity" opacity="0.8" style="isolation: isolate">
    <path id="Path_5" data-name="Path 5" d="M0,0V166.456c76.04,79.83,164.825,115.681,251.4,100.686,111.952-19.31,216.918-119.781,329.045-134.848,117.489-15.678,234.755,60.7,347.183,126.793,110.217,64.727,220.053,89.467,333.182,47.035,57.519-21.576,111.14-64.152,166.193-105.5,147.4-110.719,343.922-252,482.349-11.939V0Z" fill="#0097e6" opacity="0.25"/>
    <path id="Path_7" data-name="Path 7" d="M0,0V20.257c238.557,192.031,499.756,236.36,757.1,132.914,68.418-27.49,134.021-72.394,203.043-95.206,93.876-31.052,178.97,44.041,263.427,127.373,93.765,92.507,186.161,157.345,289.9,138.491,137.68-25.187,274.405-164.469,395.872-305.156V0Z" fill="#0097e6"/>
  </g>
</svg>
