<svg xmlns="http://www.w3.org/2000/svg" width="22" height="25" viewBox="0 0 22 25">
  <g id="location" transform="translate(-99.213 -123.305)">
    <g id="Group_5" data-name="Group 5" transform="translate(99.213 123.305)">
      <g id="Group_4" data-name="Group 4" transform="translate(0)">
        <path id="Path_28" data-name="Path 28" d="M110.213,123.305c-6.065,0-11,3.738-11,8.333a6.811,6.811,0,0,0,1.321,3.96l9.078,12.438a.808.808,0,0,0,1.2,0l9.081-12.442a6.809,6.809,0,0,0,1.317-3.956C121.213,127.043,116.278,123.305,110.213,123.305Zm8.476,11.789-8.476,11.613L101.74,135.1a5.955,5.955,0,0,1-1.152-3.461c0-4.021,4.318-7.292,9.625-7.292s9.625,3.271,9.625,7.292A5.951,5.951,0,0,1,118.689,135.094Z" transform="translate(-99.213 -123.305)" fill="#1b1b47"/>
        <path id="Path_29" data-name="Path 29" d="M203.927,222.518c-3.033,0-5.5,1.869-5.5,4.167s2.467,4.167,5.5,4.167,5.5-1.869,5.5-4.167S206.96,222.518,203.927,222.518Zm0,7.292c-2.275,0-4.125-1.4-4.125-3.125s1.85-3.125,4.125-3.125,4.125,1.4,4.125,3.125S206.2,229.81,203.927,229.81Z" transform="translate(-192.927 -218.351)" fill="#1b1b47"/>
      </g>
    </g>
  </g>
</svg>
