<svg xmlns="http://www.w3.org/2000/svg" width="20.5" height="28.375" viewBox="0 0 20.5 28.375">
  <g id="mike" transform="translate(-6 -1.625)">
    <path id="Path_14" data-name="Path 14" d="M23,28H16V25h.574A3.43,3.43,0,0,0,20,21.574V11.426A3.43,3.43,0,0,0,16.574,8H13.426A3.43,3.43,0,0,0,10,11.426V21.574A3.43,3.43,0,0,0,13.426,25H14v3H7a1,1,0,0,0,0,2H23a1,1,0,0,0,0-2ZM12,21.574V20h1a1,1,0,0,0,0-2H12V17h1a1,1,0,0,0,0-2H12V14h1a1,1,0,0,0,0-2H12v-.574A1.428,1.428,0,0,1,13.426,10h3.148A1.428,1.428,0,0,1,18,11.426V12H17a1,1,0,0,0,0,2h1v1H17a1,1,0,0,0,0,2h1v1H17a1,1,0,0,0,0,2h1v1.574A1.428,1.428,0,0,1,16.574,23H13.426A1.428,1.428,0,0,1,12,21.574Z" fill="#fff"/>
    <path id="Path_15" data-name="Path 15" d="M17.75,7.125A3.254,3.254,0,0,1,21,10.375a1,1,0,0,0,2,0,5.256,5.256,0,0,0-5.25-5.25,1,1,0,0,0,0,2Z" fill="#fff"/>
    <path id="Path_16" data-name="Path 16" d="M18.25,1.625a1,1,0,0,0,0,2,6.257,6.257,0,0,1,6.25,6.25,1,1,0,0,0,2,0A8.259,8.259,0,0,0,18.25,1.625Z" fill="#fff"/>
  </g>
</svg>
