<svg xmlns="http://www.w3.org/2000/svg" width="25" height="20" viewBox="0 0 25 20">
  <path id="play-cricket" d="M13.765,2.143c0,1.183-1.316,2.143-2.94,2.143s-2.94-.959-2.94-2.143S9.2,0,10.825,0,13.765.959,13.765,2.143Zm5.645,8.114h0L15.49,7.4h0a1.164,1.164,0,0,0-.784-.257H5.435a1.387,1.387,0,0,0-1.47.914h0L2,19.057H2a.505.505,0,0,0,0,.2c0,.394.439.714.98.714a1,1,0,0,0,.98-.486h0l2.352-5.557h0l.51-1.186.784.629h0l2.234,1.771v4.143c0,.394.439.714.98.714s.98-.32.98-.714V15h0a.583.583,0,0,0-.157-.314h0L8.826,12.143l1.96-3.571h3.352l3.92,2.629h0a1.137,1.137,0,0,0,.725.243c.5-.044.876-.36.862-.729A.6.6,0,0,0,19.41,10.257ZM25.525,16.1c-.812,0-1.47.48-1.47,1.071s.658,1.071,1.47,1.071,1.47-.48,1.47-1.071S26.337,16.1,25.525,16.1Zm-6.35-2.186V12.857c0-.2-.219-.357-.49-.357s-.49.16-.49.357v1.057a.7.7,0,0,0-.49.6v4.771c0,.394.439.714.98.714s.98-.32.98-.714V14.514A.7.7,0,0,0,19.174,13.914Z" transform="translate(-1.995)" fill="#fff"/>
</svg>
