<svg xmlns="http://www.w3.org/2000/svg" width="170.664" height="426.314" viewBox="0 0 170.664 426.314">
  <g id="star" transform="translate(0 153)">
    <g id="_3star" data-name="3star" transform="translate(88.749 207)">
      <g id="Group_16" data-name="Group 16" transform="translate(33.644 31.035)">
        <path id="Path_32" data-name="Path 32" d="M17.794,49.279A2.668,2.668,0,0,1,15,46.759V16.52A2.668,2.668,0,0,1,17.794,14a2.668,2.668,0,0,1,2.794,2.52V46.759A2.668,2.668,0,0,1,17.794,49.279Z" transform="translate(-15 -14)" fill="#0097e6"/>
      </g>
      <g id="Group_17" data-name="Group 17" transform="translate(8.5 46.155)">
        <path id="Path_33" data-name="Path 33" d="M8.794,37.639A2.668,2.668,0,0,1,6,35.119V22.52A2.668,2.668,0,0,1,8.794,20a2.668,2.668,0,0,1,2.794,2.52v12.6A2.668,2.668,0,0,1,8.794,37.639Z" transform="translate(-6 -20)" fill="#0097e6"/>
      </g>
      <g id="Group_18" data-name="Group 18" transform="translate(58.788 46.155)">
        <path id="Path_34" data-name="Path 34" d="M26.794,32.6A2.668,2.668,0,0,1,24,30.08V22.52a2.809,2.809,0,0,1,5.588,0v7.56A2.668,2.668,0,0,1,26.794,32.6Z" transform="translate(-24 -20)" fill="#0097e6"/>
      </g>
      <path id="Path_35" data-name="Path 35" d="M41.387,11.8a1.881,1.881,0,0,0-1.8-1.177H39.58l-9.043.018L27.768,2.871a1.966,1.966,0,0,0-3.61,0L21.387,10.64l-9.041-.02h-.006a1.881,1.881,0,0,0-1.8,1.177,1.618,1.618,0,0,0,.693,1.913l7.331,4.775-2.819,7.749a1.619,1.619,0,0,0,.687,1.915,2.063,2.063,0,0,0,2.235,0l7.3-4.813,7.3,4.813a2.058,2.058,0,0,0,2.232,0,1.621,1.621,0,0,0,.687-1.918l-2.816-7.749L40.7,13.707A1.616,1.616,0,0,0,41.387,11.8Z" transform="translate(10.474 -1.684)" fill="#0097e6"/>
      <path id="Path_36" data-name="Path 36" d="M25.859,17.552a1.394,1.394,0,0,0-1.335-.872h0l-6.694.013-2.051-5.748a1.454,1.454,0,0,0-2.671,0l-2.051,5.75L4.364,16.68h0a1.4,1.4,0,0,0-1.335.872,1.2,1.2,0,0,0,.514,1.416L8.963,22.5,6.876,28.236a1.2,1.2,0,0,0,.508,1.419,1.508,1.508,0,0,0,.824.242,1.492,1.492,0,0,0,.827-.244l5.4-3.563,5.4,3.561a1.523,1.523,0,0,0,1.651,0A1.2,1.2,0,0,0,22,28.234L19.914,22.5l5.426-3.535A1.188,1.188,0,0,0,25.859,17.552Z" transform="translate(-2.958 11.054)" fill="#0097e6"/>
      <path id="Path_37" data-name="Path 37" d="M43.793,17.552a1.394,1.394,0,0,0-1.335-.872h0l-6.694.013L33.71,10.944a1.454,1.454,0,0,0-2.671,0l-2.051,5.75L22.3,16.68h0a1.4,1.4,0,0,0-1.335.872,1.2,1.2,0,0,0,.514,1.416L26.9,22.5l-2.087,5.735a1.2,1.2,0,0,0,.508,1.419,1.508,1.508,0,0,0,.824.242,1.492,1.492,0,0,0,.827-.244l5.406-3.563,5.4,3.561a1.523,1.523,0,0,0,1.651,0,1.2,1.2,0,0,0,.508-1.419L37.851,22.5l5.425-3.535A1.19,1.19,0,0,0,43.793,17.552Z" transform="translate(29.207 11.054)" fill="#0097e6"/>
    </g>
    <path id="singlestar" d="M32,47,12,62l8-24L2,24H24L32,1l8,23H62L44,38l8,24Z" transform="translate(105.749 -1)" fill="none" stroke="#0097e6" stroke-miterlimit="10" stroke-width="2"/>
    <g id="Page-1" transform="translate(0 99.036)">
      <g id="icon-23-star">
        <path id="star-2" data-name="star" d="M22.132,34.956,9.19,44.842l5.752-16.478L2,18.478H16.38L22.132,2l5.752,16.478h14.38L29.322,28.364l5.752,16.478Z" transform="translate(-2 -2)" fill="#0097e6" fill-rule="evenodd"/>
      </g>
    </g>
    <g id="_3star-2" data-name="3star" transform="translate(88.749 -153)">
      <g id="Group_16-2" data-name="Group 16" transform="translate(33.644 31.035)">
        <path id="Path_32-2" data-name="Path 32" d="M17.794,49.279A2.668,2.668,0,0,1,15,46.759V16.52A2.668,2.668,0,0,1,17.794,14a2.668,2.668,0,0,1,2.794,2.52V46.759A2.668,2.668,0,0,1,17.794,49.279Z" transform="translate(-15 -14)" fill="#0097e6"/>
      </g>
      <g id="Group_17-2" data-name="Group 17" transform="translate(8.5 46.155)">
        <path id="Path_33-2" data-name="Path 33" d="M8.794,37.639A2.668,2.668,0,0,1,6,35.119V22.52A2.668,2.668,0,0,1,8.794,20a2.668,2.668,0,0,1,2.794,2.52v12.6A2.668,2.668,0,0,1,8.794,37.639Z" transform="translate(-6 -20)" fill="#0097e6"/>
      </g>
      <g id="Group_18-2" data-name="Group 18" transform="translate(58.788 46.155)">
        <path id="Path_34-2" data-name="Path 34" d="M26.794,32.6A2.668,2.668,0,0,1,24,30.08V22.52a2.809,2.809,0,0,1,5.588,0v7.56A2.668,2.668,0,0,1,26.794,32.6Z" transform="translate(-24 -20)" fill="#0097e6"/>
      </g>
      <path id="Path_35-2" data-name="Path 35" d="M41.387,11.8a1.881,1.881,0,0,0-1.8-1.177H39.58l-9.043.018L27.768,2.871a1.966,1.966,0,0,0-3.61,0L21.387,10.64l-9.041-.02h-.006a1.881,1.881,0,0,0-1.8,1.177,1.618,1.618,0,0,0,.693,1.913l7.331,4.775-2.819,7.749a1.619,1.619,0,0,0,.687,1.915,2.063,2.063,0,0,0,2.235,0l7.3-4.813,7.3,4.813a2.058,2.058,0,0,0,2.232,0,1.621,1.621,0,0,0,.687-1.918l-2.816-7.749L40.7,13.707A1.616,1.616,0,0,0,41.387,11.8Z" transform="translate(10.474 -1.684)" fill="#0097e6"/>
      <path id="Path_36-2" data-name="Path 36" d="M25.859,17.552a1.394,1.394,0,0,0-1.335-.872h0l-6.694.013-2.051-5.748a1.454,1.454,0,0,0-2.671,0l-2.051,5.75L4.364,16.68h0a1.4,1.4,0,0,0-1.335.872,1.2,1.2,0,0,0,.514,1.416L8.963,22.5,6.876,28.236a1.2,1.2,0,0,0,.508,1.419,1.508,1.508,0,0,0,.824.242,1.492,1.492,0,0,0,.827-.244l5.4-3.563,5.4,3.561a1.523,1.523,0,0,0,1.651,0A1.2,1.2,0,0,0,22,28.234L19.914,22.5l5.426-3.535A1.188,1.188,0,0,0,25.859,17.552Z" transform="translate(-2.958 11.054)" fill="#0097e6"/>
      <path id="Path_37-2" data-name="Path 37" d="M43.793,17.552a1.394,1.394,0,0,0-1.335-.872h0l-6.694.013L33.71,10.944a1.454,1.454,0,0,0-2.671,0l-2.051,5.75L22.3,16.68h0a1.4,1.4,0,0,0-1.335.872,1.2,1.2,0,0,0,.514,1.416L26.9,22.5l-2.087,5.735a1.2,1.2,0,0,0,.508,1.419,1.508,1.508,0,0,0,.824.242,1.492,1.492,0,0,0,.827-.244l5.406-3.563,5.4,3.561a1.523,1.523,0,0,0,1.651,0,1.2,1.2,0,0,0,.508-1.419L37.851,22.5l5.425-3.535A1.19,1.19,0,0,0,43.793,17.552Z" transform="translate(29.207 11.054)" fill="#0097e6"/>
    </g>
  </g>
</svg>
